<svg width="219" height="39" viewBox="0 0 219 39" fill="none" xmlns="http://www.w3.org/2000/svg">
<path d="M19.5 1.61804L23.4025 13.6287L23.5148 13.9742H23.878H36.5068L26.2899 21.3972L25.996 21.6107L26.1083 21.9562L30.0108 33.9668L19.7939 26.5438L19.5 26.3303L19.2061 26.5438L8.98924 33.9668L12.8917 21.9562L13.004 21.6107L12.7101 21.3972L2.49324 13.9742H15.122H15.4852L15.5975 13.6287L19.5 1.61804Z" fill="#0672CB" stroke="#F0F7FF"/>
<path d="M64.5 1.61804L68.4025 13.6287L68.5148 13.9742H68.878H81.5068L71.2899 21.3972L70.996 21.6107L71.1083 21.9562L75.0108 33.9668L64.7939 26.5438L64.5 26.3303L64.2061 26.5438L53.9892 33.9668L57.8917 21.9562L58.004 21.6107L57.7101 21.3972L47.4932 13.9742H60.122H60.4852L60.5975 13.6287L64.5 1.61804Z" fill="#0672CB" stroke="#F0F7FF"/>
<path d="M109.5 1.61804L113.402 13.6287L113.515 13.9742H113.878H126.507L116.29 21.3972L115.996 21.6107L116.108 21.9562L120.011 33.9668L109.794 26.5438L109.5 26.3303L109.206 26.5438L98.9892 33.9668L102.892 21.9562L103.004 21.6107L102.71 21.3972L92.4932 13.9742H105.122H105.485L105.598 13.6287L109.5 1.61804Z" fill="#0672CB" stroke="#F0F7FF"/>
<path d="M154.5 1.61804L158.402 13.6287L158.515 13.9742H158.878H171.507L161.29 21.3972L160.996 21.6107L161.108 21.9562L165.011 33.9668L154.794 26.5438L154.5 26.3303L154.206 26.5438L143.989 33.9668L147.892 21.9562L148.004 21.6107L147.71 21.3972L137.493 13.9742H150.122H150.485L150.598 13.6287L154.5 1.61804Z" stroke="#F0F7FF"/>
<path d="M199.5 1.61804L203.402 13.6287L203.515 13.9742H203.878H216.507L206.29 21.3972L205.996 21.6107L206.108 21.9562L210.011 33.9668L199.794 26.5438L199.5 26.3303L199.206 26.5438L188.989 33.9668L192.892 21.9562L193.004 21.6107L192.71 21.3972L182.493 13.9742H195.122H195.485L195.598 13.6287L199.5 1.61804Z" stroke="#F0F7FF"/>
</svg>
