<svg width="111" height="20" viewBox="0 0 111 20" fill="none" xmlns="http://www.w3.org/2000/svg">
<path d="M9.88356 1.61804L11.627 6.98388L11.7393 7.32937H12.1026H17.7445L13.1801 10.6456L12.8862 10.8592L12.9984 11.2047L14.7419 16.5705L10.1775 13.2542L9.88356 13.0407L9.58967 13.2542L5.02521 16.5705L6.76868 11.2047L6.88093 10.8592L6.58704 10.6456L2.02258 7.32937H7.66456H8.02784L8.14009 6.98388L9.88356 1.61804Z" fill="#F0F7FF" stroke="#F0F7FF"/>
<path d="M32.6919 1.61804L34.4354 6.98388L34.5476 7.32937H34.9109H40.5529L35.9884 10.6456L35.6945 10.8592L35.8068 11.2047L37.5503 16.5705L32.9858 13.2542L32.6919 13.0407L32.398 13.2542L27.8336 16.5705L29.577 11.2047L29.6893 10.8592L29.3954 10.6456L24.8309 7.32937H30.4729H30.8362L30.9484 6.98388L32.6919 1.61804Z" fill="#F0F7FF" stroke="#F0F7FF"/>
<path d="M55.5 1.61804L57.2435 6.98388L57.3557 7.32937H57.719H63.361L58.7965 10.6456L58.5026 10.8592L58.6149 11.2047L60.3584 16.5705L55.7939 13.2542L55.5 13.0407L55.2061 13.2542L50.6417 16.5705L52.3851 11.2047L52.4974 10.8592L52.2035 10.6456L47.639 7.32937H53.281H53.6443L53.7565 6.98388L55.5 1.61804Z" fill="#F0F7FF" stroke="#F0F7FF"/>
<path d="M78.3082 1.61804L80.0517 6.98388L80.164 7.32937H80.5272H86.1692L81.6048 10.6456L81.3109 10.8592L81.4231 11.2047L83.1666 16.5705L78.6021 13.2542L78.3082 13.0407L78.0144 13.2542L73.4499 16.5705L75.1934 11.2047L75.3056 10.8592L75.0117 10.6456L70.4473 7.32937H76.0892H76.4525L76.5648 6.98388L78.3082 1.61804Z" stroke="#F0F7FF"/>
<path d="M101.116 1.61804L102.86 6.98388L102.972 7.32937H103.335H108.977L104.413 10.6456L104.119 10.8592L104.231 11.2047L105.975 16.5705L101.41 13.2542L101.116 13.0407L100.822 13.2542L96.258 16.5705L98.0015 11.2047L98.1137 10.8592L97.8198 10.6456L93.2554 7.32937H98.8974H99.2606L99.3729 6.98388L101.116 1.61804Z" stroke="#F0F7FF"/>
</svg>
